<svg width="27" height="27" viewBox="0 0 27 27" fill="none" xmlns="http://www.w3.org/2000/svg">
<path fill-rule="evenodd" clip-rule="evenodd" d="M8.42561 2.12785C7.54989 2.24905 7.10225 2.46779 6.78426 2.79514C6.46233 3.12653 6.24452 3.59927 6.12496 4.51474C6.00202 5.45607 6.00001 6.70475 6.00001 8.5V18.5C6.00001 20.2952 6.00202 21.5439 6.12496 22.4852C6.24452 23.4007 6.46233 23.8734 6.78427 24.2048C7.10226 24.5322 7.5499 24.7509 8.42562 24.8721C9.33315 24.9978 10.5394 25 12.2857 25H14.7143C16.4606 25 17.6668 24.9978 18.5744 24.8721C19.4501 24.7509 19.8977 24.5322 20.2157 24.2048C20.5377 23.8734 20.7555 23.4007 20.8751 22.4852C20.998 21.5439 21 20.2952 21 18.5V8.5C21 6.70475 20.998 5.45608 20.8751 4.51474C20.7555 3.59927 20.5377 3.12654 20.2157 2.79515C19.8977 2.46779 19.4501 2.24905 18.5744 2.12785C17.6668 2.00225 16.4606 2 14.7143 2H12.2857C10.5394 2 9.33315 2.00225 8.42561 2.12785ZM12.2115 9.5981e-07H14.7885C16.4426 -3.14651e-05 17.7879 -5.79357e-05 18.8486 0.146738C19.9568 0.300125 20.9013 0.630563 21.6503 1.40156C22.3953 2.16851 22.711 3.12884 22.8582 4.25572C23.0001 5.34176 23 6.72158 23 8.42913V18.5709C23 20.2784 23.0001 21.6582 22.8582 22.7442C22.711 23.8711 22.3953 24.8314 21.6503 25.5984C20.9013 26.3694 19.9568 26.6999 18.8486 26.8533C17.7879 27.0001 16.4426 27 14.7885 27H12.2115C10.5574 27 9.21207 27.0001 8.15142 26.8533C7.04314 26.6999 6.09866 26.3694 5.34969 25.5984C4.60466 24.8314 4.28898 23.8711 4.1418 22.7442C3.99996 21.6582 3.99998 20.2784 4.00001 18.5709V8.42914C3.99998 6.72159 3.99996 5.34176 4.1418 4.25573C4.28898 3.12884 4.60466 2.16852 5.3497 1.40157C6.09867 0.630563 7.04315 0.300124 8.15142 0.146738C9.21208 -5.79357e-05 10.5574 -3.14651e-05 12.2115 9.5981e-07Z" fill="white"/>
<path fill-rule="evenodd" clip-rule="evenodd" d="M22.0519 3.5C22.6219 3.49996 22.9661 3.49994 23.2626 3.54456C24.8883 3.78919 26.1883 5.00623 26.4521 6.58902C26.5001 6.87658 26.5001 7.20913 26.5 7.74482C26.5 7.76298 26.5 7.78137 26.5 7.8L26.5 19.2552C26.5001 19.7909 26.5001 20.1235 26.4521 20.411C26.1882 21.9938 24.8883 23.2108 23.2625 23.4554C22.966 23.5001 22.6218 23.5 22.0519 23.5L22 23.5V22.5C22.6375 22.5 22.901 22.4986 23.1137 22.4666C24.3404 22.282 25.2779 21.3737 25.4657 20.2465C25.4983 20.0516 25.5 19.8085 25.5 19.2V7.8C25.5 7.19155 25.4983 6.94858 25.4658 6.75357C25.2779 5.6264 24.3405 4.71802 23.1137 4.53343C22.901 4.50141 22.6375 4.5 22 4.5V3.5C22.0175 3.5 22.0348 3.5 22.0519 3.5Z" fill="white"/>
<path fill-rule="evenodd" clip-rule="evenodd" d="M5.00001 4.5C4.36249 4.5 4.09908 4.50141 3.88628 4.53343C2.65951 4.71802 1.72217 5.62633 1.53424 6.75352C1.50172 6.94857 1.50001 7.19156 1.50001 7.8V19.2C1.50001 19.8085 1.50172 20.0515 1.53424 20.2465C1.72216 21.3736 2.65951 22.282 3.88627 22.4666C4.09904 22.4986 4.36248 22.5 5.00001 22.5V23.5L4.94807 23.5C4.3782 23.5 4.03406 23.5001 3.7375 23.4554C2.11165 23.2108 0.811742 21.9937 0.547857 20.411C0.499917 20.1235 0.49995 19.7909 0.500004 19.2552L0.500007 7.8C0.500007 7.78138 0.500005 7.763 0.500004 7.74485C0.49995 7.20913 0.499917 6.87661 0.547854 6.58907C0.811742 5.00627 2.11166 3.78919 3.73749 3.54456C4.03403 3.49994 4.37816 3.49996 4.9481 3.5C4.9652 3.5 4.9825 3.5 5.00001 3.5V4.5Z" fill="white"/>
<path d="M12.0526 16.7148C12.0526 17.5394 11.3457 18.2081 10.4737 18.2081V20C12.3921 20 13.9473 18.5292 13.9473 16.7148H12.0526ZM10.4737 18.2081C9.60164 18.2081 8.89473 17.5394 8.89473 16.7148H7.00001C7.00001 18.5292 8.55522 20 10.4737 20V18.2081ZM8.89473 16.7148C8.89473 15.89 9.60164 15.2215 10.4737 15.2215V13.4296C8.55522 13.4296 7.00001 14.9004 7.00001 16.7148H8.89473ZM10.4737 15.2215C11.3457 15.2215 12.0526 15.89 12.0526 16.7148H13.9473C13.9473 14.9004 12.3921 13.4296 10.4737 13.4296V15.2215ZM13.9473 16.7148V10.7416H12.0526V16.7148H13.9473ZM14.3605 9.90539L16.0237 9.11889L15.1762 7.51614L13.513 8.30263L14.3605 9.90539ZM16.692 10.3832L15.0288 11.1697L15.8763 12.7725L17.5395 11.986L16.692 10.3832ZM12.0526 10.5376C12.0526 10.8177 12.0523 11.0631 12.0633 11.2618C12.0743 11.4582 12.0988 11.6855 12.1847 11.9099L13.9661 11.2997C13.9766 11.3269 13.9634 11.3106 13.9554 11.1677C13.9476 11.0272 13.9473 10.8375 13.9473 10.5376H12.0526ZM15.0288 11.1697C14.7452 11.3038 14.5658 11.3884 14.4293 11.4447C14.2905 11.5019 14.2693 11.498 14.2997 11.4946L14.5193 13.2745C14.7699 13.2468 14.9959 13.1659 15.1865 13.0873C15.3793 13.0077 15.6113 12.8978 15.8763 12.7725L15.0288 11.1697ZM12.1847 11.9099C12.534 12.8219 13.5005 13.3868 14.5193 13.2745L14.2997 11.4946C14.1542 11.5106 14.016 11.4299 13.9661 11.2997L12.1847 11.9099ZM17.1052 9.75107C17.1052 9.87905 17.1051 9.95201 17.1029 10.0073C17.1011 10.0569 17.0984 10.0654 17.0995 10.0594L18.9605 10.3963C19.004 10.1817 18.9999 9.95852 18.9999 9.75107H17.1052ZM17.5395 11.986C17.7356 11.8933 17.9485 11.7969 18.132 11.664L16.9811 10.2406C16.9863 10.2369 16.9795 10.243 16.9334 10.2668C16.8821 10.2932 16.8131 10.326 16.692 10.3832L17.5395 11.986ZM17.0995 10.0594C17.085 10.1315 17.0428 10.196 16.9811 10.2406L18.132 11.664C18.5635 11.3521 18.8584 10.9008 18.9605 10.3963L17.0995 10.0594ZM16.0237 9.11889C16.3073 8.9848 16.4868 8.90022 16.6232 8.84397C16.762 8.78676 16.7832 8.79069 16.7528 8.79404L16.5332 7.01418C16.2826 7.04182 16.0566 7.12276 15.866 7.20132C15.6732 7.28085 15.4412 7.39083 15.1762 7.51614L16.0237 9.11889ZM18.9999 9.75107C18.9999 9.47087 19.0002 9.22555 18.9892 9.02679C18.9782 8.83045 18.9537 8.60307 18.8678 8.37869L17.0864 8.98898C17.0759 8.96175 17.0891 8.97798 17.0971 9.12095C17.1049 9.2615 17.1052 9.45121 17.1052 9.75107H18.9999ZM16.7528 8.79404C16.8983 8.77799 17.0365 8.8587 17.0864 8.98898L18.8678 8.37869C18.5185 7.46677 17.552 6.9018 16.5332 7.01418L16.7528 8.79404ZM13.513 8.30263C13.3169 8.3954 13.104 8.49179 12.9205 8.62453L14.0714 10.0481C14.0662 10.0518 14.073 10.0456 14.1191 10.0218C14.1704 9.99537 14.2394 9.96262 14.3605 9.90539L13.513 8.30263ZM13.9473 10.5376C13.9473 10.4096 13.9474 10.3366 13.9496 10.2813C13.9514 10.2317 13.9541 10.2232 13.953 10.2292L12.092 9.89228C12.0486 10.107 12.0526 10.3301 12.0526 10.5376H13.9473ZM12.9205 8.62453C12.489 8.93652 12.1941 9.3878 12.092 9.89228L13.953 10.2292C13.9675 10.1571 14.0097 10.0926 14.0714 10.0481L12.9205 8.62453Z" fill="white"/>
</svg>
