<svg width="24" height="24" viewBox="0 0 24 24" fill="none" xmlns="http://www.w3.org/2000/svg">
<path fill-rule="evenodd" clip-rule="evenodd" d="M9 13.5C9 11.567 10.3431 10 12 10C13.6569 10 15 11.567 15 13.5C15 15.433 13.6569 17 12 17C11.2044 17 10.4414 16.6313 9.8787 15.9748C9.31605 15.3184 9 14.4282 9 13.5Z" stroke="white" stroke-width="2" stroke-linecap="round" stroke-linejoin="round"/>
<path fill-rule="evenodd" clip-rule="evenodd" d="M4.34243 4.25805L8.63557 1.86963C10.7292 0.710125 13.2724 0.710125 15.366 1.86963L19.6591 4.25805C21.708 5.37801 22.9873 7.52187 23 9.85665V16.428C22.9448 20.1118 19.9142 23.0535 16.2303 22.9993H7.76971C4.08577 23.0535 1.05514 20.1118 1 16.428V9.85665C1.01303 7.52154 2.29299 5.37759 4.34243 4.25805Z" stroke="white" stroke-width="2" stroke-linecap="round" stroke-linejoin="round"/>
</svg>
