<svg width="23" height="26" viewBox="0 0 23 26" fill="none" xmlns="http://www.w3.org/2000/svg">
<path d="M22.1009 17.8613L22.9694 12.7529C23.1863 11.477 22.2216 10.3101 20.9499 10.3101H14.5714C13.9392 10.3101 13.4578 9.73296 13.5601 9.09777L14.376 4.03356C14.5086 3.21084 14.4706 2.36899 14.2648 1.56203C14.0943 0.893555 13.5872 0.35679 12.9203 0.138899L12.7418 0.0805755C12.3387 -0.0511084 11.8988 -0.0204692 11.5188 0.165769C11.1006 0.370764 10.7945 0.744667 10.6811 1.18936L10.0955 3.48554C9.90911 4.21613 9.63777 4.92134 9.28777 5.58767C8.77641 6.56125 7.98581 7.34042 7.164 8.06067L5.39275 9.61303C4.89333 10.0508 4.63105 10.7063 4.68788 11.3746L5.68776 23.1353C5.77946 24.214 6.66624 25.0421 7.72965 25.0421H13.4526C17.7385 25.0421 21.3962 22.005 22.1009 17.8613Z" fill="white"/>
<path fill-rule="evenodd" clip-rule="evenodd" d="M0.89236 9.44299C1.39129 9.42138 1.81863 9.79815 1.86165 10.2976L3.06975 24.3226C3.14735 25.2235 2.44042 26 1.53774 26C0.687471 26 0 25.3075 0 24.4556V10.3783C0 9.87694 0.393416 9.46461 0.89236 9.44299Z" fill="white"/>
</svg>
