<svg width="112" height="30" viewBox="0 0 112 30" fill="none" xmlns="http://www.w3.org/2000/svg">
    <path d="M34.18 21.24C33.4333 21.24 32.76 21.1133 32.16 20.86C31.5733 20.6067 31.0667 20.2467 30.64 19.78C30.2267 19.3 29.9067 18.7333 29.68 18.08C29.4533 17.4133 29.34 16.6733 29.34 15.86C29.34 15.0333 29.4533 14.2867 29.68 13.62C29.92 12.9533 30.2467 12.3867 30.66 11.92C31.0733 11.44 31.5667 11.0733 32.14 10.82C32.7267 10.5667 33.3733 10.44 34.08 10.44C34.7733 10.44 35.4 10.5667 35.96 10.82C36.5333 11.0733 37.02 11.4267 37.42 11.88C37.82 12.32 38.1267 12.8467 38.34 13.46C38.5533 14.0733 38.66 14.7467 38.66 15.48V16.24H31.02V16.72C31.02 17.1733 31.0933 17.5933 31.24 17.98C31.3867 18.3667 31.5933 18.7 31.86 18.98C32.14 19.26 32.4733 19.48 32.86 19.64C33.26 19.7867 33.7 19.86 34.18 19.86C34.8733 19.86 35.4733 19.7 35.98 19.38C36.4867 19.06 36.8733 18.62 37.14 18.06L38.32 18.86C38.0133 19.5533 37.5 20.1267 36.78 20.58C36.0733 21.02 35.2067 21.24 34.18 21.24ZM34.08 11.76C33.64 11.76 33.2333 11.84 32.86 12C32.4867 12.16 32.16 12.38 31.88 12.66C31.6133 12.94 31.4 13.2733 31.24 13.66C31.0933 14.0333 31.02 14.4467 31.02 14.9V15.04H36.94V14.82C36.94 14.3667 36.8667 13.9533 36.72 13.58C36.5867 13.2067 36.3933 12.8867 36.14 12.62C35.9 12.34 35.6 12.1267 35.24 11.98C34.8933 11.8333 34.5067 11.76 34.08 11.76ZM48.4922 19.32H48.4122C47.7455 20.6 46.6855 21.24 45.2322 21.24C43.9655 21.24 42.9722 20.7667 42.2522 19.82C41.5455 18.8733 41.1922 17.5467 41.1922 15.84C41.1922 14.1333 41.5455 12.8067 42.2522 11.86C42.9722 10.9133 43.9655 10.44 45.2322 10.44C46.6855 10.44 47.7455 11.08 48.4122 12.36H48.4922V6.2H50.0922V21H48.4922V19.32ZM45.8522 19.82C46.2122 19.82 46.5522 19.7733 46.8722 19.68C47.1922 19.5867 47.4722 19.4533 47.7122 19.28C47.9522 19.0933 48.1389 18.8733 48.2722 18.62C48.4189 18.3533 48.4922 18.0467 48.4922 17.7V13.98C48.4922 13.6333 48.4189 13.3333 48.2722 13.08C48.1389 12.8133 47.9522 12.5933 47.7122 12.42C47.4722 12.2333 47.1922 12.0933 46.8722 12C46.5522 11.9067 46.2122 11.86 45.8522 11.86C44.9189 11.86 44.1922 12.1467 43.6722 12.72C43.1655 13.28 42.9122 14.0267 42.9122 14.96V16.72C42.9122 17.6533 43.1655 18.4067 43.6722 18.98C44.1922 19.54 44.9189 19.82 45.8522 19.82ZM61.0844 14V9.58H60.9244L57.9844 16.76L55.0444 9.58H54.8844V14V21H53.3444V7.04H55.5044L57.9644 13.2H58.0844L60.5444 7.04H62.6244V21H61.0844V14ZM72.4166 19.32H72.3366C72.2299 19.5733 72.0966 19.82 71.9366 20.06C71.7766 20.2867 71.5766 20.4867 71.3366 20.66C71.1099 20.8333 70.8366 20.9733 70.5166 21.08C70.1966 21.1867 69.8232 21.24 69.3966 21.24C68.3166 21.24 67.4499 20.9 66.7966 20.22C66.1432 19.5267 65.8166 18.5533 65.8166 17.3V10.68H67.4166V17.02C67.4166 17.9667 67.6232 18.6733 68.0366 19.14C68.4499 19.5933 69.0566 19.82 69.8566 19.82C70.1766 19.82 70.4899 19.78 70.7966 19.7C71.1032 19.62 71.3766 19.5 71.6166 19.34C71.8566 19.18 72.0499 18.98 72.1966 18.74C72.3432 18.4867 72.4166 18.1867 72.4166 17.84V10.68H74.0166V21H72.4166V19.32ZM82.0888 21.24C81.0088 21.24 80.0754 21.06 79.2888 20.7C78.5154 20.3267 77.8554 19.8333 77.3088 19.22L78.3888 18.28C78.8821 18.8 79.4221 19.2 80.0088 19.48C80.5954 19.76 81.3021 19.9 82.1288 19.9C82.9288 19.9 83.5821 19.76 84.0888 19.48C84.6088 19.1867 84.8688 18.7333 84.8688 18.12C84.8688 17.8533 84.8154 17.6333 84.7088 17.46C84.6154 17.2733 84.4821 17.1267 84.3088 17.02C84.1354 16.9133 83.9421 16.8333 83.7288 16.78C83.5154 16.7133 83.2888 16.66 83.0488 16.62L81.4288 16.38C81.0688 16.3267 80.6754 16.2533 80.2488 16.16C79.8354 16.0667 79.4554 15.92 79.1088 15.72C78.7621 15.5067 78.4688 15.2267 78.2288 14.88C78.0021 14.5333 77.8888 14.08 77.8888 13.52C77.8888 13 77.9888 12.5533 78.1888 12.18C78.4021 11.7933 78.6954 11.4733 79.0688 11.22C79.4421 10.9533 79.8821 10.76 80.3888 10.64C80.8954 10.5067 81.4488 10.44 82.0488 10.44C82.9821 10.44 83.7888 10.5867 84.4688 10.88C85.1621 11.1733 85.7554 11.58 86.2487 12.1L85.2088 13.08C85.0888 12.9333 84.9354 12.7867 84.7488 12.64C84.5754 12.48 84.3554 12.34 84.0888 12.22C83.8354 12.0867 83.5354 11.98 83.1888 11.9C82.8421 11.82 82.4421 11.78 81.9888 11.78C81.1754 11.78 80.5488 11.92 80.1088 12.2C79.6821 12.48 79.4688 12.8867 79.4688 13.42C79.4688 13.6867 79.5154 13.9133 79.6088 14.1C79.7154 14.2733 79.8554 14.4133 80.0288 14.52C80.2021 14.6267 80.3954 14.7133 80.6088 14.78C80.8354 14.8333 81.0621 14.88 81.2888 14.92L82.9088 15.16C83.2821 15.2133 83.6754 15.2867 84.0888 15.38C84.5021 15.4733 84.8821 15.6267 85.2288 15.84C85.5754 16.04 85.8621 16.3133 86.0888 16.66C86.3288 17.0067 86.4488 17.46 86.4488 18.02C86.4488 19.0467 86.0488 19.84 85.2488 20.4C84.4621 20.96 83.4088 21.24 82.0888 21.24ZM94.6009 8.4C94.1343 8.4 93.8076 8.30667 93.6209 8.12C93.4343 7.92 93.3409 7.67333 93.3409 7.38V7.06C93.3409 6.76667 93.4343 6.52667 93.6209 6.34C93.8076 6.14 94.1343 6.04 94.6009 6.04C95.0676 6.04 95.3943 6.14 95.5809 6.34C95.7676 6.52667 95.8609 6.76667 95.8609 7.06V7.38C95.8609 7.67333 95.7676 7.92 95.5809 8.12C95.3943 8.30667 95.0676 8.4 94.6009 8.4ZM90.0809 19.64H93.8009V12.04H90.0809V10.68H95.4009V19.64H98.8809V21H90.0809V19.64ZM106.313 21.24C105.566 21.24 104.9 21.1133 104.313 20.86C103.74 20.5933 103.253 20.2267 102.853 19.76C102.453 19.2933 102.146 18.7267 101.933 18.06C101.733 17.3933 101.633 16.6533 101.633 15.84C101.633 15.0267 101.74 14.2867 101.953 13.62C102.166 12.9533 102.473 12.3867 102.873 11.92C103.273 11.44 103.76 11.0733 104.333 10.82C104.906 10.5667 105.56 10.44 106.293 10.44C107.293 10.44 108.106 10.66 108.733 11.1C109.36 11.54 109.82 12.1133 110.113 12.82L108.833 13.5C108.646 12.9667 108.333 12.5533 107.893 12.26C107.466 11.9667 106.933 11.82 106.293 11.82C105.826 11.82 105.406 11.9 105.033 12.06C104.673 12.2067 104.366 12.42 104.113 12.7C103.86 12.98 103.666 13.3133 103.533 13.7C103.413 14.0867 103.353 14.5067 103.353 14.96V16.72C103.353 17.1733 103.413 17.5933 103.533 17.98C103.666 18.3667 103.86 18.7 104.113 18.98C104.366 19.26 104.68 19.48 105.053 19.64C105.426 19.7867 105.853 19.86 106.333 19.86C107.026 19.86 107.6 19.7 108.053 19.38C108.506 19.06 108.866 18.62 109.133 18.06L110.273 18.84C109.966 19.5333 109.486 20.1067 108.833 20.56C108.193 21.0133 107.353 21.24 106.313 21.24Z" fill="white"/>
    <path d="M1 13V18" stroke="white" stroke-width="2" stroke-linecap="round"/>
    <path d="M22 13V18" stroke="white" stroke-width="2" stroke-linecap="round"/>
    <path d="M6 7V24" stroke="#0779FF" stroke-width="2" stroke-linecap="round"/>
    <path d="M17 7V24" stroke="white" stroke-width="2" stroke-linecap="round"/>
    <path d="M12 2V29" stroke="white" stroke-width="2" stroke-linecap="round"/>
</svg>
