<svg width="24" height="25" viewBox="0 0 24 25" fill="none" xmlns="http://www.w3.org/2000/svg">
<path fill-rule="evenodd" clip-rule="evenodd" d="M2.18182 11.9565C2.18182 6.55374 6.57757 2.17391 12 2.17391C17.4225 2.17391 21.8182 6.55374 21.8182 11.9565C21.8182 14.6583 20.7204 17.1024 18.9425 18.8739C18.5164 19.2984 18.5164 19.9865 18.9425 20.4111C19.3685 20.8355 20.0592 20.8355 20.4853 20.4111C22.6557 18.2486 24 15.2579 24 11.9565C24 5.35312 18.6274 0 12 0C5.37259 0 0 5.35312 0 11.9565C0 15.2579 1.34434 18.2486 3.51472 20.4111C3.94075 20.8355 4.63147 20.8355 5.0575 20.4111C5.48352 19.9865 5.48352 19.2984 5.0575 18.8739C3.27956 17.1024 2.18182 14.6583 2.18182 11.9565ZM6.54545 11.9565C6.54545 8.95498 8.98754 6.52174 12 6.52174C15.0124 6.52174 17.4545 8.95498 17.4545 11.9565C17.4545 13.4576 16.8453 14.8148 15.8569 15.7995C15.4309 16.224 15.4309 16.9122 15.8569 17.3366C16.283 17.7612 16.9737 17.7612 17.3997 17.3366C18.7804 15.961 19.6364 14.0573 19.6364 11.9565C19.6364 7.75436 16.2175 4.34783 12 4.34783C7.78256 4.34783 4.36364 7.75436 4.36364 11.9565C4.36364 14.0573 5.21956 15.961 6.60027 17.3366C7.02631 17.7612 7.71703 17.7612 8.14306 17.3366C8.56908 16.9122 8.56908 16.224 8.14306 15.7995C7.15478 14.8148 6.54545 13.4576 6.54545 11.9565ZM14.7273 11.9565C14.7273 13.4573 13.5062 14.6739 12 14.6739C10.4938 14.6739 9.27273 13.4573 9.27273 11.9565C9.27273 10.4558 10.4938 9.23913 12 9.23913C13.5062 9.23913 14.7273 10.4558 14.7273 11.9565ZM9.46166 17.9283C9.35951 16.4625 10.5253 15.2174 12 15.2174C13.4747 15.2174 14.6405 16.4625 14.5383 17.9283L14.1872 22.9668C14.1073 24.1118 13.1519 25 12 25C10.8481 25 9.89269 24.1118 9.81284 22.9668L9.46166 17.9283Z" fill="white"/>
</svg>
