<svg width="172" height="190" viewBox="0 0 172 190" fill="none" xmlns="http://www.w3.org/2000/svg">
<path d="M99.4327 66.1584L99.4327 66.1585C98.465 72.0298 103.018 77.3429 108.968 77.3429H156.669C164.95 77.3429 171.208 84.763 169.801 92.8517L163.306 130.182C158.213 159.445 131.743 181 100.602 181H57.8044C50.8809 181 45.1222 175.733 44.527 168.892L37.0497 82.9489C36.6808 78.7096 38.3827 74.5489 41.6293 71.7681C41.6293 71.7681 41.6294 71.768 41.6294 71.768L54.8752 60.4239C61.0534 55.1328 67.2087 49.2391 71.218 41.7799C73.91 36.7718 75.9977 31.4702 77.4319 25.9765L77.432 25.9763L81.8116 9.1966L81.8116 9.19645C82.5054 6.53744 84.3877 4.26858 87.0046 3.01514C89.3847 1.87546 92.1474 1.68613 94.6781 2.49407L96.0131 2.92028C100.377 4.3134 103.646 7.72732 104.741 11.92C106.209 17.546 106.48 23.415 105.534 29.1506L105.534 29.1507L99.4327 66.1584ZM6.75786 71.0047C9.45458 70.8906 11.7047 72.8758 11.9296 75.4275L20.9641 177.918C21.438 183.294 17.1147 188 11.4996 188C6.21182 188 2 183.801 2 178.714V75.8411C2 73.2832 4.06321 71.1188 6.75786 71.0047Z" fill="#202020" stroke="white" stroke-width="4"/>
</svg>
