<svg width="172" height="190" viewBox="0 0 172 190" fill="none" xmlns="http://www.w3.org/2000/svg">
<path d="M165.276 130.525L171.771 93.1946C173.394 83.8707 166.179 75.3429 156.669 75.3429H108.968C104.241 75.3429 100.641 71.1255 101.406 66.4837L107.507 29.476C108.499 23.4638 108.215 17.3118 106.676 11.4148C105.401 6.52982 101.609 2.60731 96.6214 1.01503L95.2864 0.588821C92.2722 -0.373484 88.9827 -0.149583 86.1406 1.21139C83.0131 2.70943 80.7243 5.4418 79.8764 8.69151L75.4968 25.4712C74.1029 30.8102 72.0738 35.9636 69.4563 40.833C65.6323 47.9476 59.72 53.6415 53.5743 58.9049L40.3284 70.249C36.5936 73.448 34.6322 78.238 35.0572 83.1223L42.5345 169.065C43.2203 176.948 49.8519 183 57.8044 183H100.602C132.653 183 160.006 160.806 165.276 130.525Z" fill="white"/>
<path fill-rule="evenodd" clip-rule="evenodd" d="M6.6733 69.0065C10.4044 68.8486 13.6002 71.6019 13.9219 75.2519L22.9564 177.742C23.5367 184.326 18.2501 190 11.4996 190C5.14109 190 0 184.94 0 178.714V75.8411C0 72.1776 2.94207 69.1644 6.6733 69.0065Z" fill="white"/>
</svg>
