<svg width="145" height="145" viewBox="0 0 145 145" fill="none" xmlns="http://www.w3.org/2000/svg">
<path fill-rule="evenodd" clip-rule="evenodd" d="M87 43.5C91.0042 43.5 94.25 46.746 94.25 50.75V94.25C94.25 98.2542 91.0042 101.5 87 101.5C82.9958 101.5 79.75 98.2542 79.75 94.25V50.75C79.75 46.746 82.9958 43.5 87 43.5ZM58 43.5C62.0042 43.5 65.25 46.746 65.25 50.75V94.25C65.25 98.2542 62.0042 101.5 58 101.5C53.9959 101.5 50.75 98.2542 50.75 94.25V50.75C50.75 46.746 53.996 43.5 58 43.5ZM38.063 2.8117C47.4787 0.7192 58.9012 0 72.5 0C86.0988 0 97.5212 0.7192 106.937 2.8117C116.435 4.92253 124.329 8.526 130.401 14.5985C136.474 20.6709 140.077 28.5651 142.188 38.063C144.281 47.4787 145 58.9012 145 72.5C145 86.0988 144.281 97.5212 142.188 106.937C140.077 116.435 136.474 124.329 130.401 130.401C124.329 136.474 116.435 140.077 106.937 142.188C97.5212 144.281 86.0988 145 72.5 145C58.9012 145 47.4787 144.281 38.063 142.188C28.5651 140.077 20.6709 136.474 14.5985 130.401C8.526 124.329 4.92253 116.435 2.8117 106.937C0.7192 97.5212 0 86.0988 0 72.5C0 58.9012 0.7192 47.4787 2.8117 38.063C4.92253 28.5651 8.526 20.6709 14.5985 14.5985C20.6709 8.526 28.5651 4.92253 38.063 2.8117Z" fill="#DEDEDE"/>
</svg>
